<?xml version="1.0" encoding="utf-8"?>
<!-- Generator: Adobe Illustrator 21.0.0, SVG Export Plug-In . SVG Version: 6.00 Build 0)  -->
<svg version="1.1" id="Layer_1" xmlns="http://www.w3.org/2000/svg" xmlns:xlink="http://www.w3.org/1999/xlink" x="0px" y="0px"
	 viewBox="0 0 51.2 51.2" style="enable-background:new 0 0 51.2 51.2;" xml:space="preserve">
<style type="text/css">
	.st0{fill:#1D1D1B;}
</style>
<g>
	<path class="st0" d="M36.8,14.5L19.3,33.9l-5.5-6.1c-0.6-0.7-1.6-0.7-2.3-0.1c-0.7,0.6-0.7,1.6-0.1,2.3l6.4,7.1
		c0.3,0.4,0.8,0.7,1.3,0.7c0.1,0,0.1,0,0.2,0h0.1c0.5,0,0.9-0.2,1.2-0.6l18.5-20.5c0.6-0.7,0.5-1.7-0.1-2.3
		C38.4,13.8,37.4,13.8,36.8,14.5L36.8,14.5z"/>
	<path class="st0" d="M25.6,0C11.5,0,0,11.5,0,25.6s11.5,25.6,25.6,25.6s25.6-11.5,25.6-25.6S39.7,0,25.6,0L25.6,0z M25.6,48
		C13.3,48,3.2,38,3.2,25.6S13.3,3.2,25.6,3.2C38,3.2,48,13.3,48,25.6C48,38,37.9,48,25.6,48L25.6,48z"/>
</g>
</svg>
