<?xml version="1.0" encoding="utf-8"?>
<!-- Generator: Adobe Illustrator 21.0.0, SVG Export Plug-In . SVG Version: 6.00 Build 0)  -->
<svg version="1.1" id="Layer_1" xmlns="http://www.w3.org/2000/svg" xmlns:xlink="http://www.w3.org/1999/xlink" x="0px" y="0px"
	 viewBox="0 0 129 129" style="enable-background:new 0 0 129 129;" xml:space="preserve">
<g>
	<g>
		<path d="M105.6,105.6c22.6-22.6,22.7-59.5,0-82.2S46.2,0.8,23.5,23.5s-22.6,59.4,0,82S82.9,128.3,105.6,105.6z M29.2,29.3
			c19.4-19.4,51.1-19.4,70.6,0s19.4,51.1,0,70.6s-51.1,19.4-70.6,0S9.7,48.7,29.2,29.3z"/>
		<path d="M88.2,46L46,88.2c-1.6,1.6-4.1,1.6-5.7,0l0,0c-1.6-1.6-1.6-4.1,0-5.7l42.1-42.1c1.6-1.6,4.1-1.6,5.7,0l0,0
			C89.7,42,89.8,44.5,88.2,46z"/>
		<path d="M46.1,40.4l42.1,42.1c1.6,1.6,1.6,4.1,0,5.7l0,0c-1.6,1.6-4.1,1.6-5.7,0L40.4,46c-1.6-1.6-1.6-4.1,0-5.7l0,0
			C42,38.8,44.5,38.8,46.1,40.4z"/>
	</g>
</g>
</svg>
