<svg xmlns="http://www.w3.org/2000/svg" width="200" height="200" viewBox="0 0 200 200">
  <title>Dimensions</title>
  <g id="Layer_1" data-name="Layer 1">
    <g>
      <path d="M146.27,46.61a3.28,3.28,0,0,0,3.28-3.28V33a7.17,7.17,0,0,0-7.16-7.17H73.05a3.28,3.28,0,0,0-2.32,1L43.59,53.93a3.28,3.28,0,0,0-1,2.32v98.18a7.18,7.18,0,0,0,7.17,7.17h92.59a7.17,7.17,0,0,0,7.16-7.17v-50a3.28,3.28,0,1,0-6.55,0v50a.61.61,0,0,1-.61.61H49.79a.61.61,0,0,1-.61-.61V59.53h20a7.17,7.17,0,0,0,7.16-7.16v-20h66.05A.61.61,0,0,1,143,33V43.33A3.28,3.28,0,0,0,146.27,46.61ZM69.77,52.36a.61.61,0,0,1-.61.61H53.82l16-16Z" style="fill: #e6e7e8"/>
      <path d="M171.49,54.33l-3.86-3.86a11.1,11.1,0,0,0-15.68,0L121.35,81.08H68.26a3.28,3.28,0,1,0,0,6.55h46.54L95.07,107.36H68.26a3.28,3.28,0,1,0,0,6.55H88.51l-.05.05a3.28,3.28,0,0,0-.84,1.44l-5.06,18.23H68.26a3.28,3.28,0,0,0,0,6.55H85.05s.72-.08.82-.11l20.68-5.74a3.28,3.28,0,0,0,1.44-.84L171.5,70A11.1,11.1,0,0,0,171.49,54.33ZM89.76,132.21l2.67-9.63,7,7Zm15.92-5.65L95.41,116.28l52.41-52.41L158.1,74.14Zm61.18-61.18-4.13,4.13L152.46,59.24l4.13-4.13a4.54,4.54,0,0,1,6.41,0L166.86,59A4.54,4.54,0,0,1,166.86,65.37Z" style="fill: #e6e7e8"/>
    </g>
  </g>
</svg>
