<svg id="New" xmlns="http://www.w3.org/2000/svg" width="200" height="200" viewBox="0 0 200 200">
  <title>Dimensions</title>
  <path d="M161.51,71.37h0a73.14,73.14,0,0,0-27.15-41.45A70.62,70.62,0,0,0,91.63,15.64,71,71,0,0,0,45.77,32.42,73.08,73.08,0,0,0,20.39,78.69a75.06,75.06,0,0,0-.67,10,73.84,73.84,0,0,0,9.85,36.92,72.9,72.9,0,0,0,25.77,26.14h0A71,71,0,0,0,130.66,150a73.3,73.3,0,0,0,32.89-61.35A74.46,74.46,0,0,0,161.51,71.37Zm-26-32.67a66.21,66.21,0,0,1,9.62,10.66l-5.66-1.43a5.52,5.52,0,0,0-5.12,1.33,6.78,6.78,0,0,0-2.16,5.27.25.25,0,0,1-.1.21l-4.16,3a.2.2,0,0,1-.23,0l-5.86-3.67a1.57,1.57,0,0,1-.65-1.65l1.32-6.18a1.4,1.4,0,0,1,1.29-1.16l5-.15A7.37,7.37,0,0,0,135.5,38.7ZM55.31,137.47l-.84,6.42a67.25,67.25,0,0,1-29-55.23c0-2,.09-3.92.26-5.89l3.83.68a16.8,16.8,0,0,0,2.93.26h1.94a12,12,0,0,1,7.53,2.73l2.94,2.4a1.27,1.27,0,0,1,.45.86l.4,4.05a1.22,1.22,0,0,1-.94,1.36A7.41,7.41,0,0,0,39,102.68L39.23,117a8,8,0,0,0,1.41,4.45l4.67,6.72A18.49,18.49,0,0,0,53.92,135,2.34,2.34,0,0,1,55.31,137.47Zm18.46,15.47a65.39,65.39,0,0,1-13.94-5.74L61,138.37a8.72,8.72,0,0,0-5.2-9.36,12.73,12.73,0,0,1-5.93-4.71l-4.67-6.72a1.31,1.31,0,0,1-.23-.73l-.21-14.27a1.22,1.22,0,0,1,.95-1.24c3.61-.63,6.13-4.26,5.73-8.25L51,89a7.74,7.74,0,0,0-2.73-5.24l-2.94-2.4a17.42,17.42,0,0,0-10.94-4H32.47a11.58,11.58,0,0,1-2-.18l-3.91-.7A66.67,66.67,0,0,1,49.25,37.42,65.88,65.88,0,0,1,78.43,23.27a13.86,13.86,0,0,1,3.66,5.56l.16.45a15,15,0,0,1,.8,3.52l.14,1.37a15.15,15.15,0,0,1-1,7.18l-1.56,3.9a13.56,13.56,0,0,1-4.84,6.17l-1.94,1.34a7.3,7.3,0,0,0-3,6.34l.26,5.76a.8.8,0,0,1-.22.6.66.66,0,0,1-.56.21.71.71,0,0,1-.56-.41l-2.38-4.86a6.62,6.62,0,0,0-3.94-3.46l-8.43-2.58a9,9,0,0,0-6.68.57l-2,1A11.35,11.35,0,0,0,43.5,73.32l5.47,6a13.46,13.46,0,0,1,.88,1.07l3.75,5.09A8.37,8.37,0,0,0,60.35,89h0L70.6,89h0a2.92,2.92,0,0,1,2.55,1.61,8.8,8.8,0,0,0,5.68,4.52l3.83.9a3,3,0,0,1,2,1.62l1.85,3.73a8,8,0,0,0,3.25,3.46l8.7,4.86a2.21,2.21,0,0,1,.4,3.44l-3.3,3.21a8.49,8.49,0,0,0-2.09,3.34l-.72,2.11a2.41,2.41,0,0,1-1.25,1.43L88,124.82A8.81,8.81,0,0,0,83,132.94a2.7,2.7,0,0,1-.26,1.16Zm17.86,2.46a66,66,0,0,1-12-1.11L87.84,137a9.53,9.53,0,0,0,.91-4.08,2.5,2.5,0,0,1,1.4-2.3l3.52-1.6a8.5,8.5,0,0,0,4.42-5l.72-2.11a2.13,2.13,0,0,1,.52-.83l3.3-3.21a8.86,8.86,0,0,0-1.6-13.77l-8.7-4.86a2,2,0,0,1-.81-.87l-1.85-3.73a8.81,8.81,0,0,0-5.8-4.76L80,89a3,3,0,0,1-1.93-1.54,8.6,8.6,0,0,0-7.5-4.73h0l-10.23,0h0a2.85,2.85,0,0,1-2.29-1.2L54.3,76.45A19.68,19.68,0,0,0,53,74.89l-5.47-6a4.7,4.7,0,0,1,1.19-7.21l2-1a3.73,3.73,0,0,1,2.77-.24L61.94,63a.73.73,0,0,1,.43.38l2.38,4.86a6.44,6.44,0,0,0,5.06,3.69A6.09,6.09,0,0,0,74.88,70a7.45,7.45,0,0,0,2-5.47l-.26-5.76a.8.8,0,0,1,.33-.7l1.94-1.34a19.7,19.7,0,0,0,7-9l1.56-3.9a22,22,0,0,0,1.43-10.43l-.14-1.37A21.83,21.83,0,0,0,87.58,27l-.16-.45a20.91,20.91,0,0,0-2.11-4.27h0c2.1-.2,4.22-.3,6.33-.3a65.23,65.23,0,0,1,38.26,12.28l0,2.92a1.45,1.45,0,0,1-1.33,1.51l-5,.15a7.3,7.3,0,0,0-6.71,6L115.59,51a8.16,8.16,0,0,0,3.4,8.55l5.86,3.67A5.48,5.48,0,0,0,131,63l4.16-3a6.78,6.78,0,0,0,2.69-5.7.24.24,0,0,1,.08-.2.19.19,0,0,1,.19,0l6.43,1.62.49.1,4.54.72a66.57,66.57,0,0,1,4.88,11.3l-4.44-1.18-.54-.12-4.85-.86a15.4,15.4,0,0,0-14.31,5.26l-.73.83a18.48,18.48,0,0,0-4.23,8.91l-1.85,10.26a19.41,19.41,0,0,0,1,10.58,16.55,16.55,0,0,0,13.07,10.64l.9.11a15,15,0,0,0,7.33-.93l3.06-1.2a1.29,1.29,0,0,1,1.52.47l.4.54a1.6,1.6,0,0,1,.3.9l.14,5.47A66.42,66.42,0,0,1,91.63,155.41Zm63.64-48.33-.33-.45a6.88,6.88,0,0,0-5.52-2.89,6.5,6.5,0,0,0-2.39.46l-3.06,1.2a9.69,9.69,0,0,1-4.75.6l-.9-.11A10.72,10.72,0,0,1,129.86,99a12.57,12.57,0,0,1-.67-6.85L131,81.88a12,12,0,0,1,2.74-5.77l.73-.83a10,10,0,0,1,9.27-3.4l4.85.86.1,0,7.65,2a67.74,67.74,0,0,1-1.11,32.29Z" style="fill: #e6e7e8"/>
</svg>
