<svg id="New" xmlns="http://www.w3.org/2000/svg" width="200" height="200" viewBox="0 0 200 200">
  <title>Dimensions</title>
  <g>
    <path d="M100,20.66a75.06,75.06,0,1,0,75.06,75.06A75.28,75.28,0,0,0,100,20.66ZM31.19,95.73A69,69,0,0,1,100,26.92c18.45,0,33.47,14.7,33.47,32.84S118.45,92.6,100,92.6c-21.89,0-39.72,17.51-39.72,39.1A39.42,39.42,0,0,0,70.6,158,69,69,0,0,1,31.19,95.73ZM100,164.54c-18.45,0-33.47-14.7-33.47-32.84s15-32.84,33.47-32.84c21.89,0,39.72-17.51,39.72-39.1A39.42,39.42,0,0,0,129.4,33.49a68.83,68.83,0,0,1-29.4,131Z" style="fill: #e6e7e8"/>
    <path d="M100,122.31a11.89,11.89,0,1,0,11.89,11.89A11.88,11.88,0,0,0,100,122.31Zm0,17.51a5.63,5.63,0,1,1,5.63-5.63A5.61,5.61,0,0,1,100,139.83Z" style="fill: #e6e7e8"/>
    <path d="M100,71.65A11.89,11.89,0,1,0,88.11,59.76,11.88,11.88,0,0,0,100,71.65Zm0-17.51a5.63,5.63,0,1,1-5.63,5.63A5.61,5.61,0,0,1,100,54.13Z" style="fill: #e6e7e8"/>
  </g>
</svg>
