<svg xmlns="http://www.w3.org/2000/svg" width="200" height="200" viewBox="0 0 200 200">
  <title>Dimensions</title>
  <g id="Layer_1" data-name="Layer 1">
    <g>
      <path d="M152.46,79.86H150a59.59,59.59,0,0,0-17.55-24.3V55.5c-1.2-4.19-.3-8.67,2.62-13.34a7.56,7.56,0,0,0,.21-7.8,7.68,7.68,0,0,0-6.68-4c-.33,0-.66,0-1,.06-11.17,1.39-17.85,6.47-21.71,11.2a77.83,77.83,0,0,0-20.66-2.77c-18.16,0-35.23,6.2-48.11,17.46S17,82.9,17,99.07a52.85,52.85,0,0,0,1.48,12.47.56.56,0,0,0,.06.21,1,1,0,0,1,.06.18,55.89,55.89,0,0,0,4.49,12,62.23,62.23,0,0,0,11.47,17.37c6.2,6.38,7.26,14.45,7.41,17.7v1.9a1.85,1.85,0,0,0,0,.42,7.31,7.31,0,0,0,7.26,6.56H71.68A7.31,7.31,0,0,0,79,160.58v-1.51a82,82,0,0,0,10.54.15v1.39a7.31,7.31,0,0,0,7.29,7.29h22.43a7.31,7.31,0,0,0,7.29-7.29v-5.48a18.62,18.62,0,0,1,6.35-12.74l.84-.72.06-.06.21-.18a59.54,59.54,0,0,0,16.41-23.94h2.11a10.41,10.41,0,0,0,10.39-10.39V90.37A10.48,10.48,0,0,0,152.46,79.86ZM155.62,107a3.16,3.16,0,0,1-3.16,3.16h-4.7a3.61,3.61,0,0,0-3.46,2.56A52,52,0,0,1,129,136l-.06.06,0,0-.81.72s-.06.06-.09.06a25.81,25.81,0,0,0-8.76,18v5.63a.06.06,0,0,1-.06.06H96.76a.06.06,0,0,1-.06-.06v-5.27a3.54,3.54,0,0,0-1.2-2.68,3.61,3.61,0,0,0-2.41-.93,1.85,1.85,0,0,0-.39,0,68.37,68.37,0,0,1-7.44.39,70.56,70.56,0,0,1-9.45-.63,3.57,3.57,0,0,0-2.86.87A3.64,3.64,0,0,0,71.71,155v5.51a.06.06,0,0,1-.06.06H49.22a.06.06,0,0,1-.06-.06h0v-1.84c-.18-4-1.45-14.27-9.45-22.49a55.74,55.74,0,0,1-10.18-15.42c0-.06,0-.09-.06-.12a48.21,48.21,0,0,1-3.94-10.51s0-.06,0-.09V110a46.1,46.1,0,0,1-1.29-10.9c0-29.21,27.4-53,61.06-53a69.33,69.33,0,0,1,20.9,3.19,3.63,3.63,0,0,0,4.09-1.42c2.68-4,8-8.94,18.25-10.24a.44.44,0,0,1,.45.24.38.38,0,0,1,0,.45c-4,6.38-5.18,13-3.43,19.15,0,0,0,.09,0,.12a3.56,3.56,0,0,0,1.35,2.71A52.5,52.5,0,0,1,144,84.65a3.63,3.63,0,0,0,3.43,2.5h5a3.16,3.16,0,0,1,3.16,3.16V107Z" style="fill: #e6e7e8"/>
      <path d="M89.2,95.45H81.13a5.24,5.24,0,0,1,0-10.48H95.4a3.61,3.61,0,0,0,0-7.23H88.81V72.9a3.61,3.61,0,0,0-7.23,0v4.85h-.42a12.47,12.47,0,0,0,0,24.93h8.07a5.24,5.24,0,1,1,0,10.48H74.72a3.61,3.61,0,1,0,0,7.23h6.86v4.94a3.61,3.61,0,0,0,7.23,0v-4.94h.6a12.47,12.47,0,0,0-.21-24.93Z" style="fill: #e6e7e8"/>
    </g>
  </g>
</svg>
