<svg xmlns="http://www.w3.org/2000/svg" width="200" height="200" viewBox="0 0 200 200">
  <title>Dimensions</title>
  <g id="Layer_1" data-name="Layer 1">
    <path d="M130.79,33.32a49.18,49.18,0,0,0-70.27,68.82,38.62,38.62,0,0,1,11.12,27v20.33h0A12.38,12.38,0,0,0,84,161.8h1.31a10.19,10.19,0,0,0,20.37,0H107a12.38,12.38,0,0,0,12.37-12.37V130a39.19,39.19,0,0,1,11.48-27.61,49.18,49.18,0,0,0-.06-69.08ZM95.5,165.65a4.1,4.1,0,0,1-4.09-3.84h8.18A4.1,4.1,0,0,1,95.5,165.65ZM107,155.71H84a6.27,6.27,0,0,1-5.63-3.53h26.76a3,3,0,0,0,0-6.1H77.74v-3.22H90.84a3,3,0,1,0,0-6.1H77.74v-3.22h35.53v15.9h0A6.28,6.28,0,0,1,107,155.71Zm19.51-57.58a45.34,45.34,0,0,0-13.16,29.32H77.71A44.75,44.75,0,0,0,64.9,97.89a43.08,43.08,0,1,1,61.61.23Z" style="fill: #e6e7e8"/>
  </g>
</svg>
