<svg xmlns="http://www.w3.org/2000/svg" width="200" height="200" viewBox="0 0 200 200">
  <title>Dimensions</title>
  <g id="Layer_1" data-name="Layer 1">
    <path d="M179.06,65.79c-2.31-25.48-20.34-44-42.9-44a42.65,42.65,0,0,0-34.72,18.27,2.24,2.24,0,0,1-1.86,1,2.11,2.11,0,0,1-1.86-1c-7.94-11.6-20.29-18.25-33.88-18.25-22.56,0-40.58,18.48-42.9,44-.18,1.11-.93,7,1.35,16.7a71.65,71.65,0,0,0,22,36.65L99.53,169.3l56.22-50.16a76,76,0,0,0,7.82-8.23s.07-.1.11-.15a70.39,70.39,0,0,0,14-28.27C180,72.82,179.24,66.9,179.06,65.79ZM99.56,161.3,48.25,114.73c-1.06-1-2.06-2-3-3h9.22A3,3,0,0,0,57.13,110l12-26.37L84.37,121.8a3,3,0,0,0,2.57,1.86h.19a3,3,0,0,0,2.6-1.53l12.36-22.25,6.28,10.54a3,3,0,0,0,5.46-.91l8.57-40.79,6.4,40.53a3,3,0,0,0,2.94,2.51h23.06c-1,1-2,2-3,3Zm72.36-80.17A64.29,64.29,0,0,1,160,105.82H134.29l-8.53-54a3,3,0,0,0-2.86-2.51,2.84,2.84,0,0,0-3,2.36l-10.33,49.16-5-8.43a3,3,0,0,0-5.15.08l-11.83,21.3L72.05,75a3,3,0,0,0-2.69-1.87,2.93,2.93,0,0,0-2.78,1.74l-14.08,31H40a64.28,64.28,0,0,1-11.95-24.7C25.92,72,26.8,66.77,26.81,66.73l0-.3c2-22.4,17.54-38.65,37-38.65,11.6,0,22.16,5.71,29,15.66a8.13,8.13,0,0,0,6.72,3.63,8.39,8.39,0,0,0,6.78-3.55,36.71,36.71,0,0,1,29.86-15.75c19.44,0,35,16.26,37,38.94C173.2,66.77,174.09,72,171.92,81.13Z" style="fill: #e6e7e8"/>
  </g>
</svg>
