<svg xmlns="http://www.w3.org/2000/svg" width="200" height="200" viewBox="0 0 200 200">
  <title>Dimensions</title>
  <g id="Layer_1" data-name="Layer 1">
    <path d="M163.58,68H135.31V49.37c0-8.28-5.74-15-12.79-15H36.42c-7.06,0-12.79,6.73-12.79,15v57.52c0,8.27,5.74,15,12.79,15H43V137.1a3.46,3.46,0,0,0,1.82,3.17,2.54,2.54,0,0,0,1.09.25,2.72,2.72,0,0,0,2.1-1L62.41,121.9h2.28v18.65c0,8.27,5.74,15,12.79,15h60.1L152,173.13a2.72,2.72,0,0,0,2.1,1,2.54,2.54,0,0,0,1.09-.25,3.46,3.46,0,0,0,1.82-3.17V155.55h6.55c7.06,0,12.79-6.73,12.79-15V83C176.37,74.76,170.63,68,163.58,68ZM64.69,83v32H61.17a2.72,2.72,0,0,0-2.1,1L48.8,128.63V118.48a3.2,3.2,0,0,0-2.91-3.42H36.42c-3.84,0-7-3.67-7-8.17V49.37c0-4.51,3.13-8.17,7-8.17h86.09c3.84,0,7,3.67,7,8.17V68h-52C70.43,68,64.69,74.76,64.69,83Zm105.86,57.52c0,4.51-3.13,8.17-7,8.17h-9.46a3.2,3.2,0,0,0-2.91,3.42v10.15l-10.27-12.52a2.72,2.72,0,0,0-2.1-1H77.49c-3.84,0-7-3.67-7-8.17V83c0-4.51,3.13-8.17,7-8.17h86.09c3.84,0,7,3.67,7,8.17v57.52Z" style="fill: #e6e7e8"/>
  </g>
</svg>
