<?xml version="1.0" encoding="utf-8"?>
<!-- Generator: Adobe Illustrator 21.0.2, SVG Export Plug-In . SVG Version: 6.00 Build 0)  -->
<svg version="1.1" id="Layer_1" xmlns="http://www.w3.org/2000/svg" xmlns:xlink="http://www.w3.org/1999/xlink" x="0px" y="0px"
	 viewBox="0 0 129 129" style="enable-background:new 0 0 129 129;" xml:space="preserve">
<style type="text/css">
	.st0{clip-path:url(#SVGID_2_);}
</style>
<g>
	<g>
		<defs>
			<rect id="SVGID_1_" x="6.5" y="10.4" width="116.1" height="108.1"/>
		</defs>
		<clipPath id="SVGID_2_">
			<use xlink:href="#SVGID_1_"  style="overflow:visible;"/>
		</clipPath>
		<path class="st0" d="M119.3,63.1c-1.8,0-3.3,1.5-3.3,3.3v30.3c0,8.2-6.7,14.9-14.9,14.9H28c-8.2,0-14.9-6.7-14.9-14.9V65.9
			c0-1.8-1.5-3.3-3.3-3.3s-3.3,1.5-3.3,3.3v30.8c0,11.9,9.7,21.6,21.6,21.6h73c11.9,0,21.6-9.7,21.6-21.6V66.4
			C122.6,64.6,121.1,63.1,119.3,63.1L119.3,63.1z M119.3,63.1"/>
	</g>
	<path d="M62.2,91.8c0.6,0.6,1.5,1,2.3,1c0.8,0,1.7-0.3,2.3-1L88,70.7c1.3-1.3,1.3-3.4,0-4.7c-1.3-1.3-3.4-1.3-4.7,0L67.9,81.5V13.9
		c0-1.8-1.5-3.3-3.3-3.3c-1.8,0-3.3,1.5-3.3,3.3v67.5L45.7,66c-1.3-1.3-3.4-1.3-4.7,0c-1.3,1.3-1.3,3.4,0,4.7L62.2,91.8z M62.2,91.8
		"/>
</g>
</svg>
