<?xml version="1.0" encoding="iso-8859-1"?>
<!-- Generator: Adobe Illustrator 21.0.2, SVG Export Plug-In . SVG Version: 6.00 Build 0)  -->
<svg version="1.1" id="Layer_1" xmlns="http://www.w3.org/2000/svg" xmlns:xlink="http://www.w3.org/1999/xlink" x="0px" y="0px"
	 viewBox="-49 141 512 512" style="enable-background:new -49 141 512 512;" xml:space="preserve">
<path d="M462.646,267.634c-0.021-14.449-11.782-26.189-26.227-26.189c-0.012,0-0.024,0-0.034,0l-459.194,0.631
	c-7.005,0.009-13.588,2.746-18.535,7.706c-4.946,4.961-7.664,11.551-7.655,18.555l0.355,258.029
	c0.009,7.005,2.746,13.588,7.706,18.535c4.951,4.938,11.526,7.655,18.519,7.655c0.012,0,0.025,0,0.035,0l459.194-0.631
	c14.458-0.02,26.207-11.799,26.19-26.261L462.646,267.634z M291.846,433.471l118.97,92.265l-407.972,0.56l119.696-92.825
	c5.722-4.439,6.764-12.675,2.326-18.399c-4.439-5.722-12.675-6.764-18.399-2.326l-128.906,99.969l-0.32-232.475l222.344,153.657
	c2.244,1.551,4.849,2.325,7.455,2.325c2.617,0,5.236-0.783,7.485-2.346l221.912-154.264l0.336,233.066l-128.856-99.931
	c-5.719-4.437-13.959-3.396-18.397,2.326C285.081,420.795,286.122,429.032,291.846,433.471z M6.04,268.262l401.571-0.552
	L207.02,407.153L6.04,268.262z"/>
</svg>
