<?xml version="1.0" encoding="iso-8859-1"?>
<!-- Generator: Adobe Illustrator 21.0.2, SVG Export Plug-In . SVG Version: 6.00 Build 0)  -->
<svg version="1.1" id="Layer_1" xmlns="http://www.w3.org/2000/svg" xmlns:xlink="http://www.w3.org/1999/xlink" x="0px" y="0px"
	 viewBox="-49 141 512 512" style="enable-background:new -49 141 512 512;" xml:space="preserve">
<path d="M399.008,151.664c0-5.891-4.781-10.664-10.672-10.664l0,0h-42.328v0.016c-0.125,0-0.234-0.016-0.344-0.016
	c-5.891,0-10.656,4.773-10.656,10.664c0,5.891,4.766,10.672,10.656,10.672c0.109,0,0.219-0.016,0.344-0.023v0.023h16.578
	l-50.016,50.016c-21.703-18.11-48.39-27.172-75.093-27.172c-30.016,0-60.047,11.461-82.953,34.367
	c-25.391,25.391-36.703,59.523-33.969,92.703C61.289,318.156,14.992,368.172,14.992,429c0,61.203,46.875,111.453,106.672,116.844
	v53.812h-21.312c-5.891,0-10.672,4.781-10.672,10.688c0,5.875,4.781,10.656,10.672,10.656h21.312v20h0.094
	c-0.047,0.438-0.094,0.875-0.094,1.344c0,5.875,4.781,10.656,10.672,10.656s10.656-4.781,10.656-10.656
	c0-0.469-0.031-0.906-0.078-1.344h0.078v-20h21.328c5.891,0,10.656-4.781,10.656-10.656c0-5.906-4.766-10.688-10.656-10.688h-21.328
	v-53.812c59.812-5.391,106.672-55.641,106.672-116.844c0-3.281-0.141-6.531-0.406-9.75c26-2.594,51.281-13.859,71.188-33.766
	c43.281-43.281,45.672-111.953,7.203-158.047l50.016-50.016V194h0.016c0,0.109-0.016,0.219-0.016,0.336
	c0,5.891,4.781,10.664,10.672,10.664s10.672-4.773,10.672-10.664c0-0.117-0.016-0.227-0.031-0.336h0.031L399.008,151.664
	L399.008,151.664z M200.211,496.875C182.086,515.016,157.977,525,132.336,525s-49.75-9.984-67.891-28.125
	C46.32,478.75,36.336,454.641,36.336,429s9.984-49.75,28.109-67.883c16.219-16.211,37.219-25.906,59.812-27.773
	c5.172,19.094,15.266,37.141,30.266,52.141c20.453,20.461,46.594,31.781,73.344,33.969c0.312,3.141,0.469,6.328,0.469,9.547
	C228.336,454.641,218.352,478.75,200.211,496.875z M146.773,334.078c20.156,3.016,38.766,12.359,53.438,27.039
	c10.422,10.414,18.141,22.805,22.828,36.328c-20.156-3.023-38.75-12.367-53.438-27.047
	C159.18,359.984,151.461,347.594,146.773,334.078z M305.367,370.398c-16.219,16.211-37.203,25.906-59.797,27.781
	c-12.734-46.867-53.766-82.07-103.625-86.117c-0.297-3.156-0.469-6.336-0.469-9.547c0-25.641,10-49.75,28.125-67.883
	s42.234-28.117,67.875-28.117c25.656,0,49.766,9.984,67.891,28.117s28.125,42.242,28.125,67.883S323.492,352.266,305.367,370.398z"
	/>
</svg>
