<?xml version="1.0" encoding="utf-8"?>
<!-- Generator: Adobe Illustrator 21.0.0, SVG Export Plug-In . SVG Version: 6.00 Build 0)  -->
<svg version="1.1" id="Layer_1" xmlns="http://www.w3.org/2000/svg" xmlns:xlink="http://www.w3.org/1999/xlink" x="0px" y="0px"
	 viewBox="0 0 51.2 51.2" style="enable-background:new 0 0 51.2 51.2;" xml:space="preserve">
<style type="text/css">
	.st0{fill:#1D1D1B;}
</style>
<path class="st0" d="M25.6,0C11.5,0,0,11.5,0,25.6s11.5,25.6,25.6,25.6s25.6-11.5,25.6-25.6S39.7,0,25.6,0L25.6,0z M25.6,48
	C13.3,48,3.2,38,3.2,25.6S13.3,3.2,25.6,3.2C38,3.2,48,13.3,48,25.6C48,38,37.9,48,25.6,48L25.6,48z"/>
<path class="st0" d="M39.1,27.3H12.1c-0.9,0-1.6-0.7-1.6-1.6v-0.2c0-0.9,0.7-1.6,1.6-1.6h26.9c0.9,0,1.6,0.7,1.6,1.6v0.2
	C40.6,26.6,39.9,27.3,39.1,27.3z"/>
</svg>
