<?xml version="1.0" encoding="utf-8"?>
<!-- Generator: Adobe Illustrator 21.0.0, SVG Export Plug-In . SVG Version: 6.00 Build 0)  -->
<svg version="1.1" id="Capa_1" xmlns="http://www.w3.org/2000/svg" xmlns:xlink="http://www.w3.org/1999/xlink" x="0px" y="0px"
	 viewBox="0 0 65 65" style="enable-background:new 0 0 65 65;" xml:space="preserve">
<g>
	<g>
		<path d="M32.5,0C14.6,0,0,14.6,0,32.5S14.6,65,32.5,65S65,50.4,65,32.5S50.4,0,32.5,0z M32.5,61C16.8,61,4,48.2,4,32.5
			S16.8,4,32.5,4S61,16.8,61,32.5S48.2,61,32.5,61z"/>
		<circle cx="33" cy="19.5" r="3.3"/>
		<path d="M32.1,28.3c-1.1,0-2,0.9-2,2v17c0,1.1,0.9,2,2,2s2-0.9,2-2v-17C34.1,29.2,33.2,28.3,32.1,28.3z"/>
	</g>
</g>
</svg>
