<?xml version="1.0" encoding="iso-8859-1"?>
<!-- Generator: Adobe Illustrator 21.0.2, SVG Export Plug-In . SVG Version: 6.00 Build 0)  -->
<svg version="1.1" id="Capa_1" xmlns="http://www.w3.org/2000/svg" xmlns:xlink="http://www.w3.org/1999/xlink" x="0px" y="0px"
	 viewBox="0 0 591.6 591.6" style="enable-background:new 0 0 591.6 591.6;" xml:space="preserve">
<g>
	<g>
		<path d="M540.6,0H357c-5.712,0-10.2,4.488-10.2,10.2s4.488,10.2,10.2,10.2h173.4v550.8H357c-5.712,0-10.2,4.488-10.2,10.2
			s4.488,10.2,10.2,10.2h183.6c5.712,0,10.2-4.488,10.2-10.2V10.2C550.8,4.488,546.312,0,540.6,0z"/>
		<path d="M447.168,301.512c0.204-0.204,0.204-0.408,0.408-0.816c0.204-0.408,0.408-0.612,0.612-1.02s0.204-0.612,0.408-1.02
			c0-0.204,0.204-0.612,0.204-0.816c0.204-0.612,0.204-1.224,0.204-2.04l0,0l0,0c0-0.612,0-1.428-0.204-2.04
			c0-0.204-0.204-0.612-0.204-0.816c0-0.408-0.204-0.612-0.408-1.02c-0.204-0.408-0.408-0.612-0.612-1.02
			c-0.204-0.204-0.204-0.612-0.408-0.816c-0.408-0.612-0.816-1.02-1.224-1.632l-102-102c-4.08-4.08-10.404-4.08-14.484,0
			c-4.08,4.08-4.08,10.404,0,14.484l84.66,84.66H51c-5.712,0-10.2,4.488-10.2,10.2S45.288,306,51,306h363.12l-84.66,84.66
			c-4.08,4.08-4.08,10.404,0,14.484c2.04,2.04,4.692,3.06,7.14,3.06c2.448,0,5.304-1.02,7.14-3.06l102-102
			C446.352,302.532,446.76,301.92,447.168,301.512z"/>
	</g>
</g>
</svg>
