<?xml version="1.0" encoding="iso-8859-1"?>
<!-- Generator: Adobe Illustrator 21.0.2, SVG Export Plug-In . SVG Version: 6.00 Build 0)  -->
<svg version="1.1" id="Layer_1" xmlns="http://www.w3.org/2000/svg" xmlns:xlink="http://www.w3.org/1999/xlink" x="0px" y="0px"
	 viewBox="0 0 870 389" style="enable-background:new 0 0 870 389;" xml:space="preserve">
<g>
	<path style="fill:#373736;" d="M34.5,83.5c2.404,0,4.808,0,7.521,0c0,22.04,0,44.085,0,66.131c0,21.986,0,43.972,0,66.308
		c4.655,0,9.209-0.168,13.743,0.063c2.724,0.138,4.611-0.734,6.55-2.621c21.074-20.507,42.252-40.906,63.339-61.399
		c1.549-1.505,3.043-2.327,5.221-2.136c1.951,0.171,3.929,0.036,5.895,0.036c0.117,0.232,0.234,0.464,0.351,0.696
		c-22.915,22.545-45.83,45.091-68.963,67.851c24.759,27.137,49.462,54.212,74.165,81.287c-0.099,0.231-0.197,0.461-0.296,0.692
		c-2.777,0-5.559,0.095-8.326-0.07c-0.655-0.039-1.332-0.884-1.873-1.473c-22.557-24.523-45.111-49.049-67.616-73.62
		c-1.172-1.28-2.309-1.83-4.054-1.798c-5.972,0.109-11.948,0.042-18.094,0.042c0,25.687,0,51.148,0,77.012c-2.632,0-5.096,0-7.561,0
		C34.5,228.167,34.5,155.833,34.5,83.5z"/>
	<path style="fill:#373736;" d="M274.103,273.648c-4.519,7.44-10.604,13.477-17.913,18.293c-13.914,9.17-29.425,11.9-45.747,11.23
		c-9.605-0.395-18.604-2.795-26.283-8.849c-11.039-8.704-14.987-20.557-14.806-34.163c0.156-11.727,5.452-20.882,14.229-28.249
		c10.537-8.843,22.857-13.986,36.412-14.735c17.114-0.946,34.298-0.618,51.452-0.837c0.976-0.012,1.952-0.002,3.194-0.002
		c0-2.471,0.034-4.701-0.006-6.931c-0.131-7.324,0.318-14.722-0.559-21.957c-1.97-16.261-11.683-26.295-27.214-30.499
		c-14.004-3.79-28.081-3.633-41.602,2.128c-10.907,4.647-18.632,12.405-21.038,24.506c-0.404,2.029-0.506,4.118-0.771,6.384
		c-2.09-0.126-4.131-0.25-6.328-0.383c-0.598-10.141,2.441-18.736,9.093-26.048c7.691-8.454,17.38-13.283,28.524-15.222
		c13.438-2.338,26.751-1.925,39.566,3.162c17.478,6.938,27.112,20.025,27.601,38.755c0.611,23.397,0.189,46.819,0.337,70.229
		c0.05,7.823,0.215,15.664,0.831,23.457c0.43,5.436,1.718,10.803,2.646,16.338c-2.507,0-5.184,0-8.348,0
		C276.286,291.404,275.203,282.596,274.103,273.648z M274.641,224.33c-0.34-0.161-0.485-0.291-0.63-0.29
		c-17.237,0.158-34.494-0.121-51.703,0.648c-11.644,0.52-22.395,4.724-31.825,11.828c-4.997,3.764-9.134,8.255-11.53,14.142
		c-5.635,13.848-0.81,36.36,21.618,43.331c8.635,2.684,17.451,2.282,26.236,0.995c19.94-2.922,35.263-12.661,44.935-30.695
		c2.008-3.744,3.342-7.527,2.944-11.874c-0.242-2.643-0.045-5.327-0.045-7.993C274.641,237.695,274.641,230.968,274.641,224.33z"/>
	<path style="fill:#373736;" d="M519.892,220.055c-36.991,0-73.786,0-110.873,0c0,4.735-0.126,9.288,0.023,13.831
		c0.523,15.918,5.038,30.439,15.294,42.906c10.713,13.023,24.525,19.299,41.344,18.885c17.127-0.421,32.237-5.968,44.997-18.169
		c1.297,1.868,2.591,3.732,4.068,5.859c-2.187,1.981-4.229,4.051-6.491,5.843c-13.867,10.992-29.891,14.749-47.262,13.984
		c-29.285-1.29-48.548-24.042-55.416-44.974c-2.639-8.043-3.976-16.32-4.079-24.78c-0.139-11.493-0.397-23,2.47-34.28
		c5.191-20.428,15.849-37.091,35.257-46.255c19.164-9.048,38.707-8.685,56.939,3.002c13.014,8.342,19.482,21.245,22.329,36.127
		C520.254,201.249,520.007,210.555,519.892,220.055z M512.73,212.531c-0.424-5.558-0.591-10.869-1.27-16.114
		c-3.074-23.731-19.197-39.696-42.595-41.61c-15.514-1.269-29.318,3.251-40.463,14.535c-10.988,11.124-16.509,24.753-18.068,40.15
		c-0.308,3.041-0.36,3.039,2.668,3.039c32.248,0.001,64.496,0,96.745,0C510.557,212.531,511.367,212.531,512.73,212.531z"/>
	<path style="fill:#373736;" d="M343.839,83.483c2.373,0,4.684,0,7.185,0c0,72.238,0,144.48,0,216.831c-2.371,0-4.679,0-7.185,0
		C343.839,228.127,343.839,155.948,343.839,83.483z"/>
</g>
</svg>
