<?xml version="1.0" encoding="iso-8859-1"?>
<!-- Generator: Adobe Illustrator 21.0.2, SVG Export Plug-In . SVG Version: 6.00 Build 0)  -->
<svg version="1.1" id="Layer_1" xmlns="http://www.w3.org/2000/svg" xmlns:xlink="http://www.w3.org/1999/xlink" x="0px" y="0px"
	 viewBox="-49 141 512 512" style="enable-background:new -49 141 512 512;" xml:space="preserve">
<path d="M207.001,417.673c-28.017,0-50.81,22.793-50.81,50.81c0,13.895,5.775,27.33,15.858,36.891v45.875
	c0,19.273,15.68,34.953,34.953,34.953s34.953-15.68,34.953-34.953v-45.875c10.078-9.555,15.857-22.993,15.857-36.891
	C257.81,440.466,235.016,417.673,207.001,417.673z M224.979,487.558c-4.851,4.571-7.633,10.96-7.633,17.53v46.161
	c0,5.705-4.64,10.345-10.345,10.345c-5.704,0-10.345-4.64-10.345-10.345v-46.161c0-6.569-2.782-12.957-7.63-17.527
	c-5.307-5.003-8.229-11.778-8.229-19.078c0-14.447,11.755-26.202,26.202-26.202s26.202,11.755,26.202,26.202
	C233.203,475.783,230.281,482.558,224.979,487.558z"/>
<path d="M355.979,350.876h-36.908v-97.804c0-61.797-50.276-112.072-112.071-112.072C145.205,141,94.93,191.275,94.93,253.072v97.804
	H58.021c-20.353,0-36.911,16.558-36.911,36.911v228.301C21.11,636.441,37.668,653,58.021,653h297.958
	c20.353,0,36.911-16.558,36.911-36.911V387.788C392.89,367.435,376.332,350.876,355.979,350.876z M119.536,253.072
	c0-48.227,39.236-87.464,87.464-87.464c48.227,0,87.463,39.237,87.463,87.464v97.804H119.536V253.072z M368.283,616.089
	c0,6.784-5.519,12.304-12.304,12.304H58.021c-6.784,0-12.304-5.519-12.304-12.304V387.788c0-6.784,5.519-12.304,12.304-12.304
	h297.958c6.784,0,12.304,5.519,12.304,12.304L368.283,616.089L368.283,616.089z"/>
</svg>
