<?xml version="1.0" encoding="iso-8859-1"?>
<!-- Generator: Adobe Illustrator 21.0.2, SVG Export Plug-In . SVG Version: 6.00 Build 0)  -->
<svg version="1.1" id="Layer_1" xmlns="http://www.w3.org/2000/svg" xmlns:xlink="http://www.w3.org/1999/xlink" x="0px" y="0px"
	 viewBox="0 0 200 200" style="enable-background:new 0 0 200 200;" xml:space="preserve">
<g>
	<path style="fill:#231F20;" d="M159.311,0H38.688C16.802,0-1,17.802-1,39.689v120.623C-1,182.198,16.802,200,38.688,200h120.623
		C181.198,200,199,182.198,199,160.311V39.689C199,17.802,181.198,0,159.311,0L159.311,0z M192.904,160.311
		c0,18.52-15.073,33.593-33.593,33.593H38.688c-18.516,0-33.574-15.073-33.574-33.593V39.689c0-18.516,15.058-33.574,33.574-33.574
		h120.623c18.52,0,33.593,15.058,33.593,33.574V160.311z M134.204,18.249H63.8c-11.737,0-21.295,9.542-21.295,21.276
		c0,11.752,9.558,21.295,21.295,21.295h70.419c11.733,0,21.276-9.542,21.276-21.295C155.495,27.791,145.952,18.249,134.204,18.249
		L134.204,18.249z M134.204,54.704H63.8c-8.367,0-15.18-6.798-15.18-15.18c0-8.363,6.798-15.176,15.18-15.176h70.419
		c8.363,0,15.176,6.813,15.176,15.176C149.395,47.906,142.582,54.704,134.204,54.704L134.204,54.704z M94.347,30.043l0.195,3.057
		c-1.011,0.057-2.011,0.149-2.996,0.252l-0.328-3.042C92.248,30.207,93.29,30.12,94.347,30.043L94.347,30.043z M70.09,36.036
		l1.252,2.79c-0.908,0.401-1.805,0.836-2.698,1.282l-1.37-2.729C68.197,36.917,69.136,36.456,70.09,36.036L70.09,36.036z
		 M59.178,42.166l1.729,2.519c-0.821,0.565-1.641,1.149-2.431,1.76l-1.832-2.447C57.46,43.372,58.311,42.761,59.178,42.166
		L59.178,42.166z M81.957,31.952l0.718,2.966c-0.969,0.241-1.939,0.492-2.893,0.779l-0.863-2.924
		C79.915,32.475,80.931,32.204,81.957,31.952L81.957,31.952z M138.841,42.525c0.863,0.595,1.698,1.221,2.534,1.863l-1.866,2.416
		c-0.79-0.611-1.592-1.21-2.412-1.775L138.841,42.525z M127.955,36.276c0.954,0.446,1.893,0.908,2.832,1.385l-1.401,2.714
		c-0.893-0.462-1.79-0.908-2.699-1.328L127.955,36.276z M116.134,32.085c1.011,0.256,2.027,0.538,3.023,0.851l-0.893,2.924
		c-0.954-0.302-1.924-0.569-2.893-0.821L116.134,32.085z M103.741,30.089c1.061,0.073,2.103,0.164,3.134,0.282l-0.344,3.042
		c-1-0.118-1.985-0.21-2.996-0.282L103.741,30.089z M101.191,48.742c0.344,1.653-0.012,2.996-0.79,2.996h-2.802
		c-0.759,0-1.118-1.344-0.79-2.996l1.58-7.829c0.344-1.657,0.882-1.657,1.221,0L101.191,48.742z M131.52,172.255
		c0,1.683-1.359,3.057-3.057,3.057H69.537c-1.683,0-3.054-1.374-3.054-3.057c0-1.687,1.37-3.057,3.054-3.057h58.941
		C130.162,169.197,131.52,170.568,131.52,172.255L131.52,172.255z M131.52,172.255"/>
</g>
</svg>
