<?xml version="1.0" encoding="utf-8"?>
<!-- Generator: Adobe Illustrator 21.0.2, SVG Export Plug-In . SVG Version: 6.00 Build 0)  -->
<svg version="1.1" id="Capa_1" xmlns="http://www.w3.org/2000/svg" xmlns:xlink="http://www.w3.org/1999/xlink" x="0px" y="0px"
	 viewBox="0 0 60 60" style="enable-background:new 0 0 60 60;" xml:space="preserve">
<g>
	<path d="M2.8,16.1h54.5c1.2,0,2.2-1,2.2-2.2c0-1.2-1-2.2-2.2-2.2H2.8c-1.2,0-2.2,1-2.2,2.2C0.6,15.1,1.6,16.1,2.8,16.1L2.8,16.1z
		 M2.8,16.1"/>
	<path d="M2.8,32.8h54.5c1.2,0,2.2-1,2.2-2.2c0-1.2-1-2.2-2.2-2.2H2.8c-1.2,0-2.2,1-2.2,2.2C0.6,31.8,1.6,32.8,2.8,32.8L2.8,32.8z
		 M2.8,32.8"/>
	<path d="M2.8,49.4h54.5c1.2,0,2.2-1,2.2-2.2c0-1.2-1-2.2-2.2-2.2H2.8c-1.2,0-2.2,1-2.2,2.2C0.6,48.4,1.6,49.4,2.8,49.4L2.8,49.4z
		 M2.8,49.4"/>
</g>
</svg>
