<?xml version="1.0" encoding="utf-8"?>
<!-- Generator: Adobe Illustrator 21.0.0, SVG Export Plug-In . SVG Version: 6.00 Build 0)  -->
<svg version="1.1" id="Layer_1" xmlns="http://www.w3.org/2000/svg" xmlns:xlink="http://www.w3.org/1999/xlink" x="0px" y="0px"
	 viewBox="0 0 129 129" style="enable-background:new 0 0 129 129;" xml:space="preserve">
<g>
	<g>
		<path d="M64.5,122.6c32,0,58.1-26,58.1-58.1s-26-58-58.1-58s-58,26-58,58S32.5,122.6,64.5,122.6z M64.5,14.6
			c27.5,0,49.9,22.4,49.9,49.9S92,114.4,64.5,114.4S14.6,92,14.6,64.5S37,14.6,64.5,14.6z"/>
		<path d="M94.4,68.2H34.7c-2.2,0-4-1.8-4-4v0c0-2.2,1.8-4,4-4h59.6c2.2,0,4,1.8,4,4v0C98.3,66.4,96.6,68.2,94.4,68.2z"/>
	</g>
</g>
</svg>
