<?xml version="1.0" encoding="iso-8859-1"?>
<!-- Generator: Adobe Illustrator 21.0.2, SVG Export Plug-In . SVG Version: 6.00 Build 0)  -->
<svg version="1.1" id="Layer_1" xmlns="http://www.w3.org/2000/svg" xmlns:xlink="http://www.w3.org/1999/xlink" x="0px" y="0px"
	 viewBox="0 0 200 200" style="enable-background:new 0 0 200 200;" xml:space="preserve">
<g>
	<path d="M156.361,53.407l9.856-9.844c0.23-0.226,0.367-0.504,0.504-0.762l6.469,6.453c0.613,0.613,1.406,0.918,2.199,0.918
		s1.601-0.305,2.211-0.918c1.223-1.219,1.223-3.188,0-4.41l-17.09-17.075c-1.219-1.219-3.188-1.219-4.41,0
		c-1.203,1.223-1.203,3.192,0,4.41l6.469,6.473c-0.258,0.137-0.531,0.273-0.762,0.5l-10.254,10.254
		c-10.742-8.36-23.543-14.161-37.505-16.524V22.34h8.957c1.723,0,3.125-1.406,3.125-3.113V3.113C126.114,1.402,124.727,0,123.004,0
		H78.722c-1.727,0-3.113,1.402-3.113,3.113v16.114c0,1.723,1.387,3.113,3.113,3.113h8.957v10.254
		c-40.591,5.981-71.841,41.032-71.841,83.252c0,46.403,37.751,84.154,84.154,84.154s84.17-37.751,84.17-84.154
		C184.162,91.111,173.419,68.833,156.361,53.407L156.361,53.407z M81.836,6.242h38.055v9.871H81.836V6.242z M93.918,22.34h13.887
		v9.719c-2.563-0.23-5.172-0.367-7.813-0.367c-2.043,0-4.059,0.094-6.074,0.246V22.34z M99.992,193.773
		c-42.969,0-77.912-34.958-77.912-77.927c0-39.962,30.243-72.982,69.044-77.408h17.731c38.805,4.426,69.064,37.446,69.064,77.408
		C177.919,158.816,142.962,193.773,99.992,193.773L99.992,193.773z M99.992,193.773"/>
	<path d="M103.106,107.072V56.29c0-1.707-1.391-3.113-3.113-3.113c-1.723,0-3.113,1.406-3.113,3.113v50.782
		c-3.617,1.281-6.227,4.715-6.227,8.774c0,5.16,4.184,9.356,9.34,9.356c5.172,0,9.356-4.195,9.356-9.356
		C109.348,111.787,106.738,108.354,103.106,107.072L103.106,107.072z M103.106,107.072"/>
</g>
</svg>
